HIERARCHY
ROOT Hips
{
	OFFSET 0.000000 0.000000 0.000000
	CHANNELS 6 Xposition Yposition Zposition Zrotation Yrotation Xrotation 
	JOINT LowerBack
	{
		OFFSET 0.000000 0.000000 0.000000
		CHANNELS 3 Zrotation Yrotation Xrotation
		JOINT Spine
		{
			OFFSET 0.028270 2.035590 -0.193380
			CHANNELS 3 Zrotation Yrotation Xrotation
			JOINT Spine1
			{
				OFFSET 0.056720 2.048850 -0.042750
				CHANNELS 3 Zrotation Yrotation Xrotation
				JOINT Neck
				{
					OFFSET 0.000000 0.000000 0.000000
					CHANNELS 3 Zrotation Yrotation Xrotation
					JOINT Neck1
					{
						OFFSET -0.054170 1.746240 0.172020
						CHANNELS 3 Zrotation Yrotation Xrotation
						JOINT Head
						{
							OFFSET 0.104070 1.761360 -0.123970
							CHANNELS 3 Zrotation Yrotation Xrotation
							End Site
							{
								OFFSET 0.000000 0.000000 0.000000
							}
						}
					}
				}
				JOINT LeftShoulder
				{
					OFFSET 0.000000 0.000000 0.000000
					CHANNELS 3 Zrotation Yrotation Xrotation
					JOINT LeftArm
					{
						OFFSET 3.362410 1.200890 -0.311210
						CHANNELS 3 Zrotation Yrotation Xrotation
						JOINT LeftForeArm
						{
							OFFSET 4.983000 -0.000000 -0.000000
							CHANNELS 3 Zrotation Yrotation Xrotation
							JOINT LeftHand
							{
								OFFSET 3.483560 -0.000000 -0.000000
								CHANNELS 3 Zrotation Yrotation Xrotation
								JOINT LeftFingerBase
								{
									OFFSET 0.000000 0.000000 0.000000
									CHANNELS 3 Zrotation Yrotation Xrotation
									JOINT LeftHandIndex1
									{
										OFFSET 0.715260 -0.000000 -0.000000
										CHANNELS 3 Zrotation Yrotation Xrotation
										End Site
										{
											OFFSET 0.000000 0.000000 0.000000
										}
									}
								}
								JOINT LThumb
								{
									OFFSET 0.000000 0.000000 0.000000
									CHANNELS 3 Zrotation Yrotation Xrotation
									End Site
									{
										OFFSET 0.000000 0.000000 0.000000
									}
								}
							}
						}
					}
				}
				JOINT RightShoulder
				{
					OFFSET 0.000000 0.000000 0.000000
					CHANNELS 3 Zrotation Yrotation Xrotation
					JOINT RightArm
					{
						OFFSET -3.136600 1.374050 -0.404650
						CHANNELS 3 Zrotation Yrotation Xrotation
						JOINT RightForeArm
						{
							OFFSET -5.241900 -0.000000 -0.000000
							CHANNELS 3 Zrotation Yrotation Xrotation
							JOINT RightHand
							{
								OFFSET -3.444170 -0.000000 -0.000000
								CHANNELS 3 Zrotation Yrotation Xrotation
								JOINT RightFingerBase
								{
									OFFSET 0.000000 0.000000 0.000000
									CHANNELS 3 Zrotation Yrotation Xrotation
									JOINT RightHandIndex1
									{
										OFFSET -0.622530 -0.000000 -0.000000
										CHANNELS 3 Zrotation Yrotation Xrotation
										End Site
										{
											OFFSET 0.000000 0.000000 0.000000
										}
									}
								}
								JOINT RThumb
								{
									OFFSET 0.000000 0.000000 0.000000
									CHANNELS 3 Zrotation Yrotation Xrotation
									End Site
									{
										OFFSET 0.000000 0.000000 0.000000
									}
								}
							}
						}
					}
				}
			}
		}
	}
}
}
MOTION
Frames: 9
Frame Time: 0.008333
-1.431162 17.080310 -1.131809 36.280848 78.376775 48.385324 3.391755 -2.381970 3.935750 -0.029043 -2.485040 -1.687632 -6.014433 -2.479481 2.341050 9.818535 -7.088425 -5.342681 -3.100232 -0.248853 0.472237 0.000000 0.000000 0.000000 -3.989758 8.590678 2.901830 -35.730326 -12.442329 1.213656 -3.925323 -41.950507 0.010232 -11.313878 0.568178 -0.049824 -0.132533 0.048098 0.000000 0.000000 0.000000 0.000000 0.000000 0.000000 0.000000 14.378419 -6.376558 0.145461 65.360640 -6.683989 -4.646221 4.277769 22.190226 0.013203 9.682526 8.940141 0.756891 0.055273 -0.024332 -0.000000 0.000000 0.000000 0.000000 0.000000 0.000000 0.000000 
-1.340252 17.111105 -1.064243 34.814990 78.075480 46.852791 3.578953 -2.373547 3.990885 0.023094 -2.478208 -1.702553 -5.950172 -2.479030 2.284405 9.949645 -6.798757 -5.277378 -3.093628 -0.249097 0.488671 0.000000 0.000000 0.000000 -3.825649 8.617000 2.840775 -37.214382 -11.184162 1.944106 -4.025484 -41.048778 0.008063 -11.448485 0.679457 -0.062430 -0.138341 0.038313 0.000000 0.000000 0.000000 0.000000 0.000000 0.000000 0.000000 14.373851 -6.073952 0.164425 64.958648 -5.823554 -4.267204 4.282599 22.115825 0.013068 9.775069 8.889845 0.759891 0.054899 -0.023930 -0.000000 0.000000 0.000000 0.000000 0.000000 0.000000 0.000000 
-1.252102 17.140106 -0.993379 33.788898 77.774490 45.756082 3.673322 -2.387358 4.037180 0.055883 -2.490762 -1.716951 -5.889020 -2.497396 2.229895 10.112355 -6.520757 -5.216417 -3.084441 -0.249148 0.504258 0.000000 0.000000 0.000000 -3.627328 8.633937 2.786111 -38.593161 -9.925159 2.848463 -4.116009 -40.147976 0.005796 -11.596582 0.800173 -0.076342 -0.143043 0.028470 0.000000 0.000000 0.000000 0.000000 0.000000 0.000000 0.000000 14.399291 -5.787196 0.182204 64.569223 -4.957170 -3.814420 4.279409 22.172129 0.012881 9.881449 8.824374 0.762591 0.054157 -0.023608 -0.000000 0.000000 0.000000 0.000000 0.000000 0.000000 0.000000 
-1.166505 17.166798 -0.919804 33.145458 77.481286 45.041012 3.685247 -2.418820 4.070237 0.071612 -2.518820 -1.733021 -5.829261 -2.530928 2.172960 10.295974 -6.283805 -5.157630 -3.072841 -0.249092 0.519905 0.000000 0.000000 0.000000 -3.388814 8.577062 2.735098 -39.889613 -8.579979 3.894319 -4.191408 -39.302418 0.003347 -11.762214 0.938942 -0.092669 -0.146386 0.018284 0.000000 0.000000 0.000000 0.000000 0.000000 0.000000 0.000000 14.445277 -5.546963 0.203921 64.186029 -4.065552 -3.236571 4.267812 22.344488 0.012723 9.972459 8.766319 0.764693 0.053250 -0.023573 -0.000000 0.000000 0.000000 0.000000 0.000000 0.000000 0.000000 
-1.083197 17.190989 -0.844276 32.794182 77.198092 44.621961 3.636214 -2.462197 4.088067 0.074091 -2.557634 -1.749974 -5.773061 -2.574689 2.118215 10.490621 -6.070023 -5.104520 -3.059291 -0.248881 0.534427 0.000000 0.000000 0.000000 -3.146341 8.504407 2.690435 -41.072220 -7.249185 5.120384 -4.255232 -38.486344 0.000749 -11.935059 1.092310 -0.111003 -0.148751 0.007904 0.000000 0.000000 0.000000 0.000000 0.000000 0.000000 0.000000 14.504722 -5.330296 0.225350 63.816818 -3.178646 -2.605040 4.248619 22.655272 0.012571 10.066081 8.703486 0.766496 0.052052 -0.023821 -0.000000 0.000000 0.000000 0.000000 0.000000 0.000000 0.000000 
-1.001908 17.212599 -0.767581 32.633075 76.923162 44.399319 3.544545 -2.510778 4.090895 0.067251 -2.601098 -1.768722 -5.718480 -2.622786 2.062912 10.683883 -5.902511 -5.056102 -3.043605 -0.248541 0.548242 0.000000 0.000000 0.000000 -2.903993 8.375733 2.648606 -42.163688 -5.878055 6.483134 -4.303529 -37.736812 -0.002045 -12.114664 1.266124 -0.132047 -0.149985 -0.002825 0.000000 0.000000 0.000000 0.000000 0.000000 0.000000 0.000000 14.565092 -5.160257 0.250417 63.453945 -2.272642 -1.878619 4.222293 23.081221 0.012497 10.137796 8.654691 0.767902 0.050756 -0.024531 -0.000000 0.000000 0.000000 0.000000 0.000000 0.000000 0.000000 
-0.922462 17.231813 -0.690538 32.554432 76.648894 44.267708 3.430458 -2.557342 4.081098 0.055058 -2.642519 -1.788688 -5.665533 -2.668543 2.008249 10.865419 -5.772764 -5.013009 -3.025993 -0.248054 0.561017 0.000000 0.000000 0.000000 -2.682074 8.215934 2.609317 -43.163988 -4.507775 7.972754 -4.337585 -37.044270 -0.005002 -12.293717 1.458706 -0.155799 -0.150279 -0.013780 0.000000 0.000000 0.000000 0.000000 0.000000 0.000000 0.000000 14.616454 -5.024363 0.278131 63.098680 -1.356938 -1.090368 4.189927 23.621741 0.012504 10.192992 8.616798 0.768910 0.049349 -0.025743 -0.000000 0.000000 0.000000 0.000000 0.000000 0.000000 0.000000 
-0.844699 17.248895 -0.613854 32.457010 76.363851 44.126492 3.309578 -2.595060 4.062466 0.040813 -2.675298 -1.809329 -5.613141 -2.705438 1.954382 11.025881 -5.685372 -4.975376 -3.006335 -0.247403 0.572639 0.000000 0.000000 0.000000 -2.492028 8.026935 2.570378 -44.086409 -3.139980 9.552475 -4.356958 -36.413515 -0.008095 -12.466957 1.670122 -0.182159 -0.149674 -0.024897 0.000000 0.000000 0.000000 0.000000 0.000000 0.000000 0.000000 14.649193 -4.925080 0.309470 62.746970 -0.419366 -0.233385 4.152602 24.259560 0.012623 10.224353 8.596025 0.769722 0.047917 -0.027535 -0.000000 0.000000 0.000000 0.000000 0.000000 0.000000 0.000000 
-0.768505 17.264192 -0.538066 32.256066 76.053026 43.889986 3.193658 -2.617504 4.039494 0.026773 -2.693075 -1.830490 -5.561570 -2.727175 1.899459 11.158513 -5.606986 -4.938691 -2.985321 -0.246658 0.584105 0.000000 0.000000 0.000000 -2.346257 7.839620 2.533539 -44.935712 -1.815533 11.205696 -4.364357 -35.827264 -0.011259 -12.628238 1.897806 -0.210724 -0.148425 -0.035944 0.000000 0.000000 0.000000 0.000000 0.000000 0.000000 0.000000 14.654288 -4.822987 0.342870 62.405601 0.502986 0.624342 4.111337 25.005612 0.012813 10.254938 8.577941 0.770733 0.046315 -0.029840 -0.000000 0.000000 0.000000 0.000000 0.000000 0.000000 0.000000 
